<mxfile host="app.diagrams.net" agent="Mozilla/5.0 (Windows NT 10.0; Win64; x64) AppleWebKit/537.36 (KHTML, like Gecko) Chrome/139.0.0.0 Safari/537.36" version="28.1.2">
  <diagram name="PÃ¡gina-1" id="dJRIzbeqtENdng8PCOVJ">
    <mxGraphModel dx="1042" dy="567" grid="1" gridSize="10" guides="1" tooltips="1" connect="1" arrows="1" fold="1" page="1" pageScale="1" pageWidth="827" pageHeight="1169" math="0" shadow="0">
      <root>
        <mxCell id="0" />
        <mxCell id="1" parent="0" />
        <mxCell id="jskIXk-iSR4AgnDnMLxL-12" value="SituacaoFinanceira" style="swimlane;fontStyle=0;childLayout=stackLayout;horizontal=1;startSize=30;horizontalStack=0;resizeParent=1;resizeParentMax=0;resizeLast=0;collapsible=1;marginBottom=0;whiteSpace=wrap;html=1;rotation=0;" vertex="1" parent="1">
          <mxGeometry x="300" y="290" width="190" height="120" as="geometry" />
        </mxCell>
        <mxCell id="jskIXk-iSR4AgnDnMLxL-13" value="- valorCreditos: number" style="text;strokeColor=none;fillColor=none;align=left;verticalAlign=middle;spacingLeft=4;spacingRight=4;overflow=hidden;points=[[0,0.5],[1,0.5]];portConstraint=eastwest;rotatable=0;whiteSpace=wrap;html=1;rotation=0;" vertex="1" parent="jskIXk-iSR4AgnDnMLxL-12">
          <mxGeometry y="30" width="190" height="30" as="geometry" />
        </mxCell>
        <mxCell id="jskIXk-iSR4AgnDnMLxL-14" value="- valorDebitos: number" style="text;strokeColor=none;fillColor=none;align=left;verticalAlign=middle;spacingLeft=4;spacingRight=4;overflow=hidden;points=[[0,0.5],[1,0.5]];portConstraint=eastwest;rotatable=0;whiteSpace=wrap;html=1;rotation=0;" vertex="1" parent="jskIXk-iSR4AgnDnMLxL-12">
          <mxGeometry y="60" width="190" height="30" as="geometry" />
        </mxCell>
        <mxCell id="jskIXk-iSR4AgnDnMLxL-17" value="" style="shape=link;html=1;rounded=0;entryX=0.986;entryY=-0.013;entryDx=0;entryDy=0;entryPerimeter=0;" edge="1" parent="jskIXk-iSR4AgnDnMLxL-12" target="jskIXk-iSR4AgnDnMLxL-15">
          <mxGeometry width="100" relative="1" as="geometry">
            <mxPoint y="90" as="sourcePoint" />
            <mxPoint x="100" y="90" as="targetPoint" />
          </mxGeometry>
        </mxCell>
        <mxCell id="jskIXk-iSR4AgnDnMLxL-15" value="+ calcularSaldo(): number" style="text;strokeColor=none;fillColor=none;align=left;verticalAlign=middle;spacingLeft=4;spacingRight=4;overflow=hidden;points=[[0,0.5],[1,0.5]];portConstraint=eastwest;rotatable=0;whiteSpace=wrap;html=1;rotation=0;" vertex="1" parent="jskIXk-iSR4AgnDnMLxL-12">
          <mxGeometry y="90" width="190" height="30" as="geometry" />
        </mxCell>
        <mxCell id="jskIXk-iSR4AgnDnMLxL-19" value="Circle" style="swimlane;fontStyle=0;childLayout=stackLayout;horizontal=1;startSize=30;horizontalStack=0;resizeParent=1;resizeParentMax=0;resizeLast=0;collapsible=1;marginBottom=0;whiteSpace=wrap;html=1;" vertex="1" parent="1">
          <mxGeometry x="340" y="470" width="190" height="180" as="geometry" />
        </mxCell>
        <mxCell id="jskIXk-iSR4AgnDnMLxL-20" value="- pi: number" style="text;strokeColor=none;fillColor=none;align=left;verticalAlign=middle;spacingLeft=4;spacingRight=4;overflow=hidden;points=[[0,0.5],[1,0.5]];portConstraint=eastwest;rotatable=0;whiteSpace=wrap;html=1;" vertex="1" parent="jskIXk-iSR4AgnDnMLxL-19">
          <mxGeometry y="30" width="190" height="30" as="geometry" />
        </mxCell>
        <mxCell id="jskIXk-iSR4AgnDnMLxL-21" value="- raio: number" style="text;strokeColor=none;fillColor=none;align=left;verticalAlign=middle;spacingLeft=4;spacingRight=4;overflow=hidden;points=[[0,0.5],[1,0.5]];portConstraint=eastwest;rotatable=0;whiteSpace=wrap;html=1;" vertex="1" parent="jskIXk-iSR4AgnDnMLxL-19">
          <mxGeometry y="60" width="190" height="30" as="geometry" />
        </mxCell>
        <mxCell id="jskIXk-iSR4AgnDnMLxL-23" value="" style="shape=link;html=1;rounded=0;entryX=1.02;entryY=1.093;entryDx=0;entryDy=0;entryPerimeter=0;" edge="1" parent="jskIXk-iSR4AgnDnMLxL-19" source="jskIXk-iSR4AgnDnMLxL-22" target="jskIXk-iSR4AgnDnMLxL-21">
          <mxGeometry width="100" relative="1" as="geometry">
            <mxPoint y="90" as="sourcePoint" />
            <mxPoint x="100" y="90" as="targetPoint" />
          </mxGeometry>
        </mxCell>
        <mxCell id="jskIXk-iSR4AgnDnMLxL-25" value="" style="shape=link;html=1;rounded=0;entryX=1.014;entryY=0.987;entryDx=0;entryDy=0;entryPerimeter=0;" edge="1" parent="jskIXk-iSR4AgnDnMLxL-19" target="jskIXk-iSR4AgnDnMLxL-21">
          <mxGeometry width="100" relative="1" as="geometry">
            <mxPoint y="89" as="sourcePoint" />
            <mxPoint x="150" y="90" as="targetPoint" />
          </mxGeometry>
        </mxCell>
        <mxCell id="jskIXk-iSR4AgnDnMLxL-22" value="+ calcularArea(): number&lt;div&gt;&lt;br&gt;&lt;/div&gt;&lt;div&gt;+ calcularPerimetro(): number&lt;/div&gt;" style="text;strokeColor=none;fillColor=none;align=left;verticalAlign=middle;spacingLeft=4;spacingRight=4;overflow=hidden;points=[[0,0.5],[1,0.5]];portConstraint=eastwest;rotatable=0;whiteSpace=wrap;html=1;" vertex="1" parent="jskIXk-iSR4AgnDnMLxL-19">
          <mxGeometry y="90" width="190" height="90" as="geometry" />
        </mxCell>
      </root>
    </mxGraphModel>
  </diagram>
</mxfile>
